<?xml version="1.0" encoding="utf-8"?>
<!-- Generator: Adobe Illustrator 22.1.0, SVG Export Plug-In . SVG Version: 6.00 Build 0)  -->
<svg version="1.1" id="Layer_1" xmlns="http://www.w3.org/2000/svg" xmlns:xlink="http://www.w3.org/1999/xlink" x="0px" y="0px"
	 viewBox="0 0 360 718" style="enable-background:new 0 0 360 718;" xml:space="preserve">
<style type="text/css">
	.st0{fill:none;}
	.st1{fill:#F2F2F2;}
</style>
<g id="XMLID_52_">
	<path id="XMLID_158_" class="st0" d="M306.6,19h-28.5c-6.1,0-8.3-0.8-8.7,6.9c-0.2,4-1.7,7-4,9.5c-2.4,2.5-5.6,4.7-9.3,5.8
		c-2.5,0.8-5.3,1.7-8,1.7h-5.4H121.9h-5.4c-2.7,0-5.5-1-8-1.8c-3.7-1.2-7-3.3-9.3-5.8c-2.4-2.6-3.8-5.5-4-9.5c-0.4-7.7-2.6-7-8.7-7
		H57.7C40.2,19,25,31.4,25,48.8v613.3c0,17.5,15.2,32.9,32.6,32.9h249c17.5,0,30.4-15.4,30.4-32.9V48.8C337,31.4,324.1,19,306.6,19z
		"/>
	<path id="XMLID_156_" d="M356,163V50.6C356,21.8,333.6,0,304.8,0H56C27.2,0,3,21.9,3,50.6V94H0v27h3v25H0v51h3v15H0v51h3v401.4
		C3,693.2,27.3,718,56,718h248.8c28.8,0,51.2-24.8,51.2-53.6V246h4v-83H356z M222.3,22.5c0,2.4-2,4.4-4.4,4.4s-4.4-2-4.4-4.4
		s2-4.4,4.4-4.4S222.3,20.1,222.3,22.5z M162.8,22h39c1.7,0,3,1,3,2.5s-1.3,2.5-3,2.5h-39c-1.7,0-3-1-3-2.5S161.1,22,162.8,22z
		 M337,662.1c0,17.5-12.9,32.9-30.4,32.9h-249C40.1,695,25,679.6,25,662.1V48.8C25,31.4,40.2,19,57.6,19h28.8c6.1,0,8.3-0.9,8.7,6.8
		c0.2,4,1.7,7,4,9.6c2.4,2.5,5.6,4.8,9.3,5.9c2.5,0.8,5.3,1.7,8,1.7h5.4h120.7h5.4c2.7,0,5.5-1.1,8-1.9c3.7-1.2,7-3.2,9.3-5.7
		c2.4-2.5,3.8-5.4,4-9.4c0.4-7.7,2.6-7.1,8.7-7.1h28.5c17.5,0,30.4,12.4,30.4,29.8v613.4H337z"/>
	<path id="XMLID_159_" class="st1" d="M201.8,22h-39c-1.7,0-3,1-3,2.5s1.3,2.5,3,2.5h39c1.7,0,3-1,3-2.5S203.4,22,201.8,22z"/>
	<circle id="XMLID_51_" class="st1" cx="217.9" cy="22.5" r="4.4"/>
</g>
</svg>
